<svg width="32" height="32" viewBox="0 0 32 32" fill="none" xmlns="http://www.w3.org/2000/svg">
<path d="M15.9475 2.16003C0.37 2.16003 0 19.625 0 23.0825C0 26.54 7.14 29.34 15.9475 29.34C24.7575 29.34 31.895 26.5375 31.895 23.0825C31.895 19.625 31.5275 2.16003 15.9475 2.16003Z" fill="#FCC21B"/>
<path d="M27.385 22.725C25.01 23.5775 22.39 22.375 21.525 20.03C20.665 17.6875 21.8825 15.095 24.2575 14.2375C26.625 13.385 29.2525 14.5925 30.12 16.935C30.98 19.2825 29.755 21.875 27.385 22.725Z" fill="#FCC21B"/>
<path d="M27.3275 22.5676C25.04 23.3901 22.5175 22.2301 21.6875 19.9751C20.86 17.7201 22.0325 15.2251 24.3175 14.4001C26.5975 13.5801 29.125 14.7426 29.96 16.9976C30.7875 19.2526 29.6075 21.7476 27.3275 22.5676Z" fill="#FCC01C"/>
<path d="M27.2675 22.4075C25.07 23.1975 22.645 22.085 21.845 19.915C21.05 17.75 22.18 15.35 24.375 14.5575C26.5675 13.77 28.995 14.885 29.7975 17.0525C30.5925 19.2225 29.46 21.6225 27.2675 22.4075Z" fill="#FCBE1C"/>
<path d="M27.21 22.2499C25.1 23.0074 22.775 21.9399 22.0075 19.8574C21.2425 17.7774 22.325 15.4749 24.4325 14.7149C26.535 13.9574 28.8675 15.0299 29.6375 17.1099C30.4 19.1924 29.315 21.4949 27.21 22.2499Z" fill="#FBBB1D"/>
<path d="M27.1525 22.09C25.1325 22.815 22.9025 21.7925 22.17 19.7975C21.4375 17.805 22.475 15.6 24.495 14.8725C26.51 14.1475 28.7425 15.175 29.48 17.1675C30.2075 19.1625 29.1675 21.3675 27.1525 22.09Z" fill="#FBB91E"/>
<path d="M27.0925 21.9325C25.16 22.6275 23.03 21.6475 22.3275 19.7425C21.6275 17.8375 22.62 15.73 24.55 15.0325C26.475 14.34 28.61 15.32 29.315 17.225C30.015 19.1325 29.02 21.24 27.0925 21.9325Z" fill="#FBB71E"/>
<path d="M27.0351 21.775C25.1926 22.4375 23.1601 21.5025 22.4901 19.685C21.8226 17.8675 22.7676 15.8575 24.6101 15.1925C26.4476 14.5325 28.4851 15.4675 29.1576 17.285C29.8226 19.1025 28.8726 21.115 27.0351 21.775Z" fill="#FBB51F"/>
<path d="M26.975 21.615C25.22 22.245 23.285 21.3575 22.65 19.625C22.015 17.895 22.915 15.9825 24.6675 15.35C26.4175 14.72 28.355 15.6125 28.995 17.3425C29.63 19.0725 28.725 20.9875 26.975 21.615Z" fill="#FAB220"/>
<path d="M26.9175 21.4575C25.2525 22.055 23.415 21.2125 22.81 19.57C22.2075 17.9275 23.0625 16.11 24.725 15.51C26.385 14.9125 28.225 15.76 28.8325 17.4C29.4375 19.0425 28.5775 20.86 26.9175 21.4575Z" fill="#FAB020"/>
<path d="M26.86 21.2975C25.2825 21.8625 23.545 21.065 22.9725 19.51C22.4025 17.955 23.21 16.235 24.785 15.6675C26.3575 15.1025 28.1 15.9025 28.675 17.4575C29.245 19.0125 28.4325 20.7325 26.86 21.2975Z" fill="#FAAE21"/>
<path d="M26.8001 21.14C25.3126 21.675 23.6726 20.92 23.1301 19.4525C22.5926 17.985 23.3551 16.3625 24.8401 15.8275C26.3226 15.295 27.9676 16.05 28.5101 17.5175C29.0501 18.9825 28.2851 20.6075 26.8001 21.14Z" fill="#FAAC22"/>
<path d="M26.7425 20.98C25.345 21.4825 23.8 20.775 23.2925 19.3925C22.785 18.015 23.505 16.4875 24.9025 15.9825C26.2975 15.48 27.8425 16.1925 28.3525 17.57C28.8575 18.9525 28.1375 20.48 26.7425 20.98Z" fill="#F9A922"/>
<path d="M26.6849 20.8225C25.3749 21.2925 23.9299 20.63 23.4549 19.3375C22.9799 18.0475 23.6524 16.6175 24.9624 16.145C26.2699 15.675 27.7174 16.34 28.1949 17.6325C28.6649 18.9225 27.9899 20.3525 26.6849 20.8225Z" fill="#F9A723"/>
<path d="M26.625 20.6625C25.405 21.1 24.0575 20.4825 23.6125 19.2775C23.17 18.075 23.7975 16.7425 25.0175 16.3C26.235 15.8625 27.585 16.4825 28.03 17.6875C28.4725 18.8925 27.8425 20.2275 26.625 20.6625Z" fill="#F9A524"/>
<path d="M26.5675 20.505C25.435 20.9125 24.185 20.3375 23.775 19.22C23.365 18.105 23.945 16.8675 25.0775 16.46C26.2075 16.055 27.4575 16.63 27.87 17.745C28.28 18.8625 27.6975 20.1 26.5675 20.505Z" fill="#F9A324"/>
<path d="M26.5075 20.3475C25.465 20.7225 24.3124 20.1925 23.9349 19.1625C23.5574 18.135 24.0925 16.995 25.135 16.62C26.175 16.245 27.3274 16.7775 27.7099 17.805C28.0874 18.8325 27.55 19.9725 26.5075 20.3475Z" fill="#F8A025"/>
<path d="M26.4499 20.1875C25.4949 20.53 24.4424 20.0475 24.0949 19.105C23.7499 18.165 24.2399 17.1225 25.1924 16.7775C26.1449 16.435 27.1999 16.92 27.5474 17.8625C27.8949 18.8025 27.4024 19.845 26.4499 20.1875Z" fill="#F89E26"/>
<path d="M26.3925 20.0299C25.5275 20.3399 24.5725 19.9024 24.2575 19.0474C23.945 18.1949 24.3875 17.2499 25.2525 16.9374C26.1175 16.6274 27.0725 17.0674 27.39 17.9199C27.7025 18.7724 27.255 19.7199 26.3925 20.0299Z" fill="#F89C26"/>
<path d="M26.3325 19.87C25.555 20.15 24.6975 19.755 24.415 18.9875C24.1325 18.2225 24.5325 17.375 25.3075 17.0925C26.0825 16.815 26.94 17.21 27.225 17.975C27.51 18.7425 27.1075 19.5925 26.3325 19.87Z" fill="#F89A27"/>
<path d="M26.275 19.7125C25.5875 19.96 24.8275 19.61 24.5775 18.9325C24.3275 18.255 24.6825 17.5025 25.37 17.255C26.0575 17.0075 26.8175 17.3575 27.0675 18.0375C27.315 18.7125 26.96 19.465 26.275 19.7125Z" fill="#F79728"/>
<path d="M26.2175 19.5525C25.6175 19.7675 24.9575 19.465 24.74 18.8725C24.5225 18.2825 24.83 17.6275 25.43 17.4125C26.0275 17.1975 26.69 17.5025 26.91 18.0925C27.1225 18.6825 26.815 19.34 26.2175 19.5525Z" fill="#F79528"/>
<path d="M26.1575 19.3951C25.6475 19.5776 25.0825 19.3201 24.8975 18.8151C24.7125 18.3126 24.975 17.7551 25.485 17.5701C25.995 17.3876 26.5575 17.6476 26.745 18.1501C26.93 18.6526 26.6675 19.2126 26.1575 19.3951Z" fill="#F79329"/>
<path d="M7.88505 22.725C5.51005 23.5775 2.89005 22.375 2.02505 20.03C1.16505 17.6875 2.38255 15.095 4.75755 14.2375C7.12505 13.385 9.75255 14.5925 10.62 16.935C11.48 19.2825 10.255 21.875 7.88505 22.725Z" fill="#FCC21B"/>
<path d="M7.82748 22.5676C5.53998 23.3901 3.01748 22.2301 2.18748 19.9751C1.35998 17.7201 2.53248 15.2251 4.81748 14.4001C7.09748 13.5801 9.62498 14.7426 10.46 16.9976C11.2875 19.2526 10.1075 21.7476 7.82748 22.5676Z" fill="#FCC01C"/>
<path d="M7.76747 22.4075C5.56997 23.1975 3.14497 22.085 2.34497 19.915C1.54997 17.75 2.67997 15.35 4.87497 14.5575C7.06747 13.77 9.49497 14.885 10.2975 17.0525C11.0925 19.2225 9.95997 21.6225 7.76747 22.4075Z" fill="#FCBE1C"/>
<path d="M7.71002 22.2499C5.60002 23.0074 3.27502 21.9399 2.50752 19.8574C1.74252 17.7774 2.82502 15.4749 4.93252 14.7149C7.03502 13.9574 9.36752 15.0299 10.1375 17.1099C10.9 19.1924 9.81502 21.4949 7.71002 22.2499Z" fill="#FBBB1D"/>
<path d="M7.65254 22.09C5.63254 22.815 3.40254 21.7925 2.67004 19.7975C1.93754 17.805 2.97504 15.6 4.99504 14.8725C7.01004 14.1475 9.24254 15.175 9.98004 17.1675C10.7075 19.1625 9.66754 21.3675 7.65254 22.09Z" fill="#FBB91E"/>
<path d="M7.59247 21.9325C5.65997 22.6275 3.52997 21.6475 2.82747 19.7425C2.12747 17.8375 3.11997 15.73 5.04997 15.0325C6.97497 14.34 9.10997 15.32 9.81497 17.225C10.515 19.1325 9.51997 21.24 7.59247 21.9325Z" fill="#FBB71E"/>
<path d="M7.53506 21.775C5.69256 22.4375 3.66006 21.5025 2.99006 19.685C2.32256 17.8675 3.26756 15.8575 5.11006 15.1925C6.94756 14.5325 8.98506 15.4675 9.65756 17.285C10.3226 19.1025 9.37256 21.115 7.53506 21.775Z" fill="#FBB51F"/>
<path d="M7.47505 21.615C5.72005 22.245 3.78505 21.3575 3.15005 19.625C2.51505 17.895 3.41505 15.9825 5.16755 15.35C6.91755 14.72 8.85505 15.6125 9.49505 17.3425C10.13 19.0725 9.22505 20.9875 7.47505 21.615Z" fill="#FAB220"/>
<path d="M7.41754 21.4575C5.75254 22.055 3.91504 21.2125 3.31004 19.57C2.70754 17.9275 3.56254 16.11 5.22504 15.51C6.88504 14.9125 8.72504 15.76 9.33254 17.4C9.93754 19.0425 9.07754 20.86 7.41754 21.4575Z" fill="#FAB020"/>
<path d="M7.36 21.2975C5.7825 21.8625 4.045 21.065 3.4725 19.51C2.9025 17.955 3.71 16.235 5.285 15.6675C6.8575 15.1025 8.6 15.9025 9.175 17.4575C9.745 19.0125 8.9325 20.7325 7.36 21.2975Z" fill="#FAAE21"/>
<path d="M7.30005 21.14C5.81255 21.675 4.17255 20.92 3.63005 19.4525C3.09255 17.985 3.85505 16.3625 5.34005 15.8275C6.82255 15.295 8.46755 16.05 9.01005 17.5175C9.55005 18.9825 8.78505 20.6075 7.30005 21.14Z" fill="#FAAC22"/>
<path d="M7.24248 20.98C5.84498 21.4825 4.29998 20.775 3.79248 19.3925C3.28498 18.015 4.00498 16.4875 5.40248 15.9825C6.79748 15.48 8.34248 16.1925 8.85248 17.57C9.35748 18.9525 8.63748 20.48 7.24248 20.98Z" fill="#F9A922"/>
<path d="M7.18495 20.8225C5.87495 21.2925 4.42995 20.63 3.95495 19.3375C3.47995 18.0475 4.15245 16.6175 5.46245 16.145C6.76995 15.675 8.21745 16.34 8.69495 17.6325C9.16495 18.9225 8.48995 20.3525 7.18495 20.8225Z" fill="#F9A723"/>
<path d="M7.12499 20.6625C5.90499 21.1 4.55749 20.4825 4.11249 19.2775C3.66999 18.075 4.29749 16.7425 5.51749 16.3C6.73499 15.8625 8.08499 16.4825 8.52999 17.6875C8.97249 18.8925 8.34249 20.2275 7.12499 20.6625Z" fill="#F9A524"/>
<path d="M7.06746 20.505C5.93496 20.9125 4.68496 20.3375 4.27496 19.22C3.86496 18.105 4.44496 16.8675 5.57746 16.46C6.70746 16.055 7.95746 16.63 8.36996 17.745C8.77996 18.8625 8.19746 20.1 7.06746 20.505Z" fill="#F9A324"/>
<path d="M7.00745 20.3475C5.96495 20.7225 4.81245 20.1925 4.43495 19.1625C4.05745 18.135 4.59245 16.995 5.63495 16.62C6.67495 16.245 7.82745 16.7775 8.20995 17.805C8.58745 18.8325 8.04995 19.9725 7.00745 20.3475Z" fill="#F8A025"/>
<path d="M6.94994 20.1875C5.99494 20.53 4.94244 20.0475 4.59494 19.105C4.24994 18.165 4.73994 17.1225 5.69244 16.7775C6.64494 16.435 7.69994 16.92 8.04744 17.8625C8.39494 18.8025 7.90244 19.845 6.94994 20.1875Z" fill="#F89E26"/>
<path d="M6.89253 20.0299C6.02753 20.3399 5.07253 19.9024 4.75753 19.0474C4.44503 18.1949 4.88753 17.2499 5.75253 16.9374C6.61753 16.6274 7.57253 17.0674 7.89003 17.9199C8.20253 18.7724 7.75503 19.7199 6.89253 20.0299Z" fill="#F89C26"/>
<path d="M6.83248 19.87C6.05498 20.15 5.19748 19.755 4.91498 18.9875C4.63248 18.2225 5.03248 17.375 5.80748 17.0925C6.58248 16.815 7.43998 17.21 7.72498 17.975C8.00998 18.7425 7.60748 19.5925 6.83248 19.87Z" fill="#F89A27"/>
<path d="M6.775 19.7125C6.0875 19.96 5.3275 19.61 5.0775 18.9325C4.8275 18.255 5.1825 17.5025 5.87 17.255C6.5575 17.0075 7.3175 17.3575 7.5675 18.0375C7.815 18.7125 7.46 19.465 6.775 19.7125Z" fill="#F79728"/>
<path d="M6.71747 19.5525C6.11747 19.7675 5.45747 19.465 5.23997 18.8725C5.02247 18.2825 5.32997 17.6275 5.92997 17.4125C6.52747 17.1975 7.18997 17.5025 7.40997 18.0925C7.62247 18.6825 7.31497 19.34 6.71747 19.5525Z" fill="#F79528"/>
<path d="M6.65752 19.3951C6.14752 19.5776 5.58252 19.3201 5.39752 18.8151C5.21252 18.3126 5.47502 17.7551 5.98502 17.5701C6.49502 17.3876 7.05752 17.6476 7.24502 18.1501C7.43002 18.6526 7.16752 19.2126 6.65752 19.3951Z" fill="#F79329"/>
<path d="M11.9325 20.8125C11.9325 20.8125 13.0425 21.0125 14.1925 22.095C14.8825 22.7425 15.32 22.9425 15.945 22.9425M19.9625 20.8125C19.9625 20.8125 18.8525 21.0125 17.7025 22.095C17.0125 22.7425 16.575 22.9425 15.95 22.9425" stroke="#2F2F2F" stroke-width="1.5" stroke-miterlimit="10" stroke-linecap="round" stroke-linejoin="round"/>
<path d="M25.2336 13.633C25.4873 11.3537 23.9686 9.31406 21.8417 9.07737C19.7147 8.84067 17.7848 10.4965 17.5312 12.7758C17.2775 15.0551 18.7962 17.0947 20.9231 17.3314C23.0501 17.5681 24.98 15.9123 25.2336 13.633Z" fill="white"/>
<path d="M23.0525 13.1975C22.995 14.0225 22.2675 14.6525 21.43 14.6025C20.59 14.555 19.955 13.8425 20.0125 13.0175C20.0675 12.19 20.7925 11.5625 21.6325 11.6125C22.4725 11.66 23.11 12.3725 23.0525 13.1975Z" fill="#2F2F2F"/>
<path d="M10.8227 17.3504C12.9568 17.1895 14.5469 15.2051 14.3744 12.9183C14.202 10.6314 12.3322 8.90799 10.1981 9.06893C8.06409 9.22988 6.47392 11.2142 6.6464 13.5011C6.81887 15.788 8.68867 17.5114 10.8227 17.3504Z" fill="white"/>
<path d="M12.1499 12.8901C12.2449 13.7126 11.6499 14.4651 10.8149 14.5701C9.97995 14.6776 9.22495 14.0951 9.12995 13.2751C9.02995 12.4526 9.62745 11.7001 10.4624 11.5926C11.2949 11.4876 12.0524 12.0701 12.1499 12.8901Z" fill="#2F2F2F"/>
</svg>
